<svg xmlns="http://www.w3.org/2000/svg" width="780" height="58" viewBox="90 251 780 58"><path fill="#03C9DE" d="M119.23 265.03h16.88V253.4H90.26v11.63h16.8v43h12.18v-43zm52.1 5.55c0 3.86-2.7 6.63-7.7 6.63h-7.17v-13.25h7.16c5 0 7.7 2.55 7.7 6.63m12.65 37.46l-11.1-22.12c6.7-2.4 10.8-8.02 10.8-15.4 0-9.73-6.94-17.13-17.73-17.13h-21.66v54.64h12.18V287.7h4.3l9.8 20.34h13.4zm9.48 0h12.34V253.4h-12.35v54.64zm27.4-5.23l12.17-19.68v-29.67h-12.16v49.36zm33.95-28.4l12.95-20.95h-14.23L236 281.8v.02l-15.14 24.5v1.72h12.85l21.1-33.63zm1.4 33.64h12.1v-51.96l-12.1 19.57v32.4zm24.66-5.37l12.16-19.7v-29.52h-12.16v49.22zm28.32-19.3l18.48-29.92H313.5l-20.48 33.2v-.15l-12.16 19.7v1.84h12.85l15.48-24.68zm19.1 24.67v-52.1l-12.07 19.57v32.54h12.1z"/><path fill="#231F20" d="M870.17 308.04v-29.2h-27.82v10.32h16.42c-.7 3.08-4.47 8.94-13.5 8.94-8.85 0-16.4-5.94-16.4-17.35 0-12.17 8.7-17.1 16.1-17.1 9.1 0 12.72 6.16 13.57 9.55l11.7-4.08c-2.38-7.63-9.62-16.88-25.27-16.88-15.4 0-28.44 11.33-28.44 28.52 0 17.26 12.5 28.44 27.67 28.44 7.8 0 12.95-3.24 15.34-6.7l.77 5.54h9.87zm-63.04 0V253.4h-12.18v33.2l-20.5-33.2h-14.8v54.64h12.1v-35.92l22.5 35.92h12.88zM747.1 253.4h-12.35v54.64h12.34V253.4zm-20.5 11.63V253.4H680.7v11.63h16.8v43h12.18v-43h16.88zm-44.64 43V296.4h-23.6v-43H646.2v54.64h35.76zm-69.6 1.24c12.02 0 21.66-7.24 21.66-20.96v-34.9h-12.18v33.9c0 6.63-3.7 9.95-9.48 9.95s-9.48-3.3-9.48-9.94v-33.9H590.7v34.9c0 13.73 9.64 20.97 21.66 20.97m-31.2-42.46c-1.17-6.4-6.33-14.56-19.98-14.56-10.48 0-19.57 7.24-19.57 17.57 0 8.1 5.63 14.27 14.88 16.04l7.48 1.4c3.62.68 5.86 2.7 5.86 5.46 0 3.4-2.93 5.7-7.7 5.7-7.5 0-10.88-4.4-11.34-9.4l-11.18 2.7c.77 7.7 7.25 17.5 22.35 17.5 13.03 0 20.2-8.7 20.2-17.27 0-7.78-5.4-14.5-15.8-16.42l-7.33-1.37c-3.77-.7-5.4-2.62-5.4-5.24 0-3.02 2.94-5.87 7.5-5.87 6.6 0 8.7 4.3 9.08 6.86l10.95-3.1zm-50.2 41.24V253.4H518.8v33.2l-20.5-33.2h-14.8v54.64h12.1v-35.92l22.5 35.92h12.87zm-113.75-27.28c0 17.26 13.03 28.44 28.45 28.44 15.34 0 28.36-11.18 28.36-28.44 0-17.35-13-28.52-28.35-28.52-15.4 0-28.44 11.18-28.44 28.52m12.65-.08c0-11.4 8.17-16.57 15.8-16.57 7.55 0 15.72 5.17 15.72 16.58 0 11.4-8.17 16.5-15.72 16.5-7.63 0-15.8-5.1-15.8-16.5m-44.1 28.52c16.97 0 24.22-11.56 26-19.12l-11.65-3.3c-1.08 3.92-4.86 10.24-14.34 10.24-8.17 0-15.72-5.94-15.72-16.2 0-11.47 8.25-16.7 15.57-16.7 9.64 0 13.1 6.4 13.96 10.16l11.5-3.62c-1.8-7.86-9.03-18.42-25.45-18.42-15.25 0-28.2 11.56-28.2 28.6 0 17.03 12.64 28.36 28.37 28.36m-47.48-8.4c0 4.23 3.53 7.93 7.85 7.93s7.94-3.7 7.94-7.93c0-4.32-3.64-7.86-7.95-7.86-4.32 0-7.86 3.54-7.86 7.86"/></svg>