<svg xmlns="http://www.w3.org/2000/svg" width="446" height="58" viewBox="0 0 446 58"><path fill="#231F20" d="M0 2.08v54.76h10.74v-21.3H32V25.7H10.66V12.2h23.96V2.08M42.58 18.84h10.27v38H42.58v-38zM47.68 0C51.23 0 54 2.86 54 6.4c0 3.4-2.77 6.26-6.32 6.26-3.48 0-6.34-2.85-6.34-6.25 0-3.54 2.86-6.4 6.34-6.4"/><path fill="#00bd59" d="M85.94 34.32v22.52h8.4v-36.1l-8.4 13.58zm41.72-.1v22.62h8.4v-36.2l-8.4 13.6zM61.36 18.9v34.3l8.45-13.7V18.9h-8.45zm22.7 0l-22.7 36.75v1.2h8.93l23.66-37.96h-9.9zm19.02 0v34.2l8.45-13.68V18.9h-8.45zm22.7 0l-22.7 36.66v1.28h8.94l23.6-37.95h-9.83z"/><path fill="#231f20" d="M171.38 37.84c0-7.18-4.64-10.8-9.66-10.8-5.02 0-9.66 3.62-9.66 10.8 0 7.1 4.63 10.8 9.66 10.8 5.03.02 9.66-3.62 9.66-10.8m10.28 0c0 11.66-8.58 20.16-19.94 20.16-11.36 0-19.94-8.5-19.94-20.16 0-11.74 8.58-20.16 19.94-20.16 11.36 0 19.94 8.42 19.94 20.16M198.73 37.84c0 6.87 4.5 10.73 9.74 10.73 5.25 0 7.88-3.47 8.73-6.4l9.04 3C224.54 51.53 218.6 58 208.47 58c-11.2 0-20-8.5-20-20.16 0-11.74 8.64-20.16 19.7-20.16 10.34 0 16.22 6.4 17.84 12.83l-9.2 3.1c-.9-3.17-3.3-6.42-8.4-6.42-5.26 0-9.67 3.8-9.67 10.66M260.24 37.84c0-7.18-4.64-10.8-9.66-10.8-5.02 0-9.66 3.62-9.66 10.8 0 7.1 4.64 10.8 9.66 10.8 5.02.02 9.66-3.62 9.66-10.8m10.28 0c0 11.66-8.58 20.16-19.94 20.16-11.35 0-19.93-8.5-19.93-20.16 0-11.74 8.57-20.16 19.93-20.16s19.94 8.42 19.94 20.16M288.9 56.84h-10.27v-38h9.97v4.7c2.3-3.93 6.87-5.7 10.97-5.7 9.43 0 13.76 6.72 13.76 15.06v23.94h-10.28V34.68c0-4.25-2.1-7.57-7.03-7.57-4.48 0-7.1 3.5-7.1 7.9v21.84zM329.32 44.33c.23 3 2.48 5.8 6.95 5.8 3.4 0 5.03-1.78 5.03-3.8 0-1.7-1.16-3.08-4.1-3.7l-5.02-1.16c-7.34-1.62-10.66-6.02-10.66-11.35 0-6.8 6.03-12.44 14.22-12.44 10.8 0 14.45 6.88 14.9 10.98l-8.57 1.93c-.3-2.25-1.93-5.1-6.26-5.1-2.7 0-4.86 1.6-4.86 3.77 0 1.86 1.4 3.02 3.48 3.4l5.4 1.16c7.5 1.54 11.3 6.1 11.3 11.66 0 6.16-4.8 12.5-14.77 12.5-11.43 0-15.37-7.42-15.84-11.74l8.82-1.93zM383.72 52.75c-2.1 3.55-6.5 5.1-10.5 5.1-9.2 0-14.46-6.73-14.46-15v-24h10.28v21.93c0 4.24 2.16 7.64 6.95 7.64 4.55 0 7.18-3.1 7.18-7.5V18.85h10.28v31.13c0 2.93.23 5.56.38 6.87h-9.8c-.17-.77-.32-2.55-.32-4.1"/><path fill="#231f20" d="M404.43.93h10.27v55.92h-10.27zM438.35 18.84H446v9.1h-7.65v15.92c0 3.33 1.55 4.4 4.48 4.4 1.24 0 2.63-.15 3.17-.3v8.5c-.93.38-2.78.92-5.8.92-7.4 0-12.05-4.4-12.05-11.74v-17.7h-6.88v-9.1h1.93c4.02 0 5.87-2.62 5.87-6.02V7.5h9.28v11.34z"/></svg>