<svg xmlns="http://www.w3.org/2000/svg" width="223" height="29" viewBox="0 0 446 58"><path fill="#231F20" d="M0 2V57h10.7V35.5H32v-9.8H10.7V12.2h24v-10m8 16.6h10.2v38H42.5v-38zm5-18.8C51.2 0 54 3 54 6.4c0 3.4-2.8 6.3-6.3 6.3s-6.4-3-6.4-6.3c0-3.5 3-6.4 6.4-6.4"/><path fill="#00bd59" d="M86 34.3v22.5h8.3v-36L86 34.2zm41.7 0v22.5h8.4V20.6l-8.3 13.6zM61.4 18.8V53l8.4-13.7V19h-8.4zM84 19L61.5 55.6v1h9L94 19H84zm19 0v34l8.5-13.6V19H103zm22.8 0L103 55.5v1.2h9l23.6-38h-9.8z"/><path d="M171.4 37.8c0-7-4.7-10.8-9.7-10.8-5 0-9.6 3.7-9.6 10.8 0 7 4.7 11 9.7 11 5 0 9.7-3.8 9.7-11m10.3 0c0 11.7-8.6 20.2-20 20.2-11.3 0-20-8.5-20-20.2s8.7-20 20-20c11.4 0 20 8.3 20 20m17 0c0 7 4.5 10.8 9.8 10.8 5.2 0 8-3.5 8.7-6.4l9 3c-1.7 6.3-7.6 12.8-17.7 12.8-11.2 0-20-8.5-20-20.2s8.6-20 19.7-20c10.3 0 16.2 6.3 17.8 12.7l-9.2 3c-1-3-3.3-6.3-8.4-6.3-5.3 0-9.7 3.8-9.7 10.6m61.5 0c0-7-4.6-10.8-9.6-10.8s-9.7 3.7-9.7 10.8c0 7 4.6 11 9.6 11s9.6-3.8 9.6-11m10.3 0c0 11.7-8.6 20.2-20 20.2-11.3 0-20-8.5-20-20.2s8.7-20 20-20c11.4 0 20 8.3 20 20m18.4 19h-10.4v-38h10v4.8c2.3-4 7-5.8 11-5.8 9.4 0 13.7 6.8 13.7 15v24H303v-22c0-4.4-2-7.7-7-7.7-4.5 0-7 3.6-7 8v21.8zm40.3-12.5c.2 3 2.5 5.8 7 5.8 3.4 0 5-1.7 5-3.7 0-1.7-1.2-3-4-3.7l-5-1c-7.5-1.7-10.8-6-10.8-11.5 0-6.7 6-12.3 14.2-12.3 11 0 14.5 7 15 11l-8.6 2c-.2-2.4-2-5.2-6.2-5.2-2.7 0-5 1.6-5 3.8 0 1.8 1.5 3 3.6 3.4l5.4 1c7.5 1.7 11.3 6.2 11.3 11.8 0 6.2-4.7 12.5-14.6 12.5-11.5 0-15.4-7.4-16-11.7l9-2zm54.4 8.5c-2 3.5-6.5 5-10.5 5-9.2 0-14.4-6.7-14.4-15V19H369v22c0 4.2 2.2 7.6 7 7.6 4.6 0 7.2-3 7.2-7.5V18.7h10.3V50c0 3 .2 5.5.3 6.8H384c0-.7-.3-2.5-.3-4M404.4 1h10.3v55.8h-10.3zm34 17.8h7.6V28h-7.7v16c0 3.2 1.6 4.3 4.5 4.3 1.3 0 2.7-.2 3.2-.3v8.5c-1 .3-2.8 1-5.8 1-7.4 0-12-4.5-12-12V28h-7v-9.2h2c4 0 6-2.6 6-6V7.5h9.2v11.3z" fill="#231F20"/></svg>